<svg aria-hidden="true" style="position: absolute; width: 0; height: 0; overflow: hidden;" version="1.1" xmlns="http://www.w3.org/2000/svg" xmlns:xlink="http://www.w3.org/1999/xlink">
<defs>
<symbol id="icon-search3" viewBox="0 0 32 32">
<path stroke-linejoin="round" stroke-linecap="round" stroke-miterlimit="4" stroke-width="2" d="M15.333 28c6.996 0 12.667-5.671 12.667-12.667s-5.671-12.667-12.667-12.667c-6.996 0-12.667 5.671-12.667 12.667s5.671 12.667 12.667 12.667z"></path>
<path stroke-linejoin="round" stroke-linecap="round" stroke-miterlimit="4" stroke-width="2" d="M29.333 29.333l-2.667-2.667"></path>
</symbol>
<symbol id="icon-search2" viewBox="0 0 32 32">
<path stroke-linejoin="round" stroke-linecap="round" stroke-miterlimit="4" stroke-width="2" d="M15.333 28c6.996 0 12.667-5.671 12.667-12.667s-5.671-12.667-12.667-12.667c-6.996 0-12.667 5.671-12.667 12.667s5.671 12.667 12.667 12.667z"></path>
<path stroke-linejoin="round" stroke-linecap="round" stroke-miterlimit="4" stroke-width="2" d="M29.333 29.333l-2.667-2.667"></path>
</symbol>
<symbol id="icon-search1" viewBox="0 0 32 32">
<path stroke-linejoin="round" stroke-linecap="round" stroke-miterlimit="4" stroke-width="2" d="M15.333 28c6.996 0 12.667-5.671 12.667-12.667s-5.671-12.667-12.667-12.667c-6.996 0-12.667 5.671-12.667 12.667s5.671 12.667 12.667 12.667z"></path>
<path stroke-linejoin="round" stroke-linecap="round" stroke-miterlimit="4" stroke-width="2" d="M29.333 29.333l-2.667-2.667"></path>
</symbol>
<symbol id="icon-settings" viewBox="0 0 32 32">
<path d="M26.8 12.293c-2.413 0-3.4-1.707-2.2-3.8 0.693-1.213 0.28-2.76-0.933-3.453l-2.307-1.32c-1.053-0.627-2.413-0.253-3.040 0.8l-0.147 0.253c-1.2 2.093-3.173 2.093-4.387 0l-0.147-0.253c-0.6-1.053-1.96-1.427-3.013-0.8l-2.307 1.32c-1.213 0.693-1.627 2.253-0.933 3.467 1.213 2.080 0.227 3.787-2.187 3.787-1.387 0-2.533 1.133-2.533 2.533v2.347c0 1.387 1.133 2.533 2.533 2.533 2.413 0 3.4 1.707 2.187 3.8-0.693 1.213-0.28 2.76 0.933 3.453l2.307 1.32c1.053 0.627 2.413 0.253 3.040-0.8l0.147-0.253c1.2-2.093 3.173-2.093 4.387 0l0.147 0.253c0.627 1.053 1.987 1.427 3.040 0.8l2.307-1.32c1.213-0.693 1.627-2.253 0.933-3.453-1.213-2.093-0.227-3.8 2.187-3.8 1.387 0 2.533-1.133 2.533-2.533v-2.347c-0.013-1.387-1.147-2.533-2.547-2.533zM16 20.333c-2.387 0-4.333-1.947-4.333-4.333s1.947-4.333 4.333-4.333c2.387 0 4.333 1.947 4.333 4.333s-1.947 4.333-4.333 4.333z"></path>
</symbol>
<symbol id="icon-notification" viewBox="0 0 32 32">
<path d="M25.787 19.32l-1.333-2.213c-0.28-0.493-0.533-1.427-0.533-1.973v-3.373c0-3.133-1.84-5.84-4.493-7.107-0.693-1.227-1.973-1.987-3.44-1.987-1.453 0-2.76 0.787-3.453 2.027-2.6 1.293-4.4 3.973-4.4 7.067v3.373c0 0.547-0.253 1.48-0.533 1.96l-1.347 2.227c-0.533 0.893-0.653 1.88-0.32 2.787 0.32 0.893 1.080 1.587 2.067 1.92 2.587 0.88 5.307 1.307 8.027 1.307s5.44-0.427 8.027-1.293c0.933-0.307 1.653-1.013 2-1.933s0.253-1.933-0.267-2.787z"></path>
<path d="M19.773 26.68c-0.56 1.547-2.040 2.653-3.773 2.653-1.053 0-2.093-0.427-2.827-1.187-0.427-0.4-0.747-0.933-0.933-1.48 0.173 0.027 0.347 0.040 0.533 0.067 0.307 0.040 0.627 0.080 0.947 0.107 0.76 0.067 1.533 0.107 2.307 0.107 0.76 0 1.52-0.040 2.267-0.107 0.28-0.027 0.56-0.040 0.827-0.080 0.213-0.027 0.427-0.053 0.653-0.080z"></path>
</symbol>
<symbol id="icon-heart" viewBox="0 0 32 32">
<path d="M23.104 1.76c-2.896 0-5.488 1.408-7.104 3.568-1.616-2.16-4.208-3.568-7.104-3.568-4.912 0-8.896 4-8.896 8.944 0 1.904 0.304 3.664 0.832 5.296 2.528 8 10.32 12.784 14.176 14.096 0.544 0.192 1.44 0.192 1.984 0 3.856-1.312 11.648-6.096 14.176-14.096 0.528-1.632 0.832-3.392 0.832-5.296 0-4.944-3.984-8.944-8.896-8.944z"></path>
</symbol>
<symbol id="icon-search" viewBox="0 0 32 32">
<path stroke-linejoin="round" stroke-linecap="round" stroke-miterlimit="4" stroke-width="2" d="M15.333 28c6.996 0 12.667-5.671 12.667-12.667s-5.671-12.667-12.667-12.667c-6.996 0-12.667 5.671-12.667 12.667s5.671 12.667 12.667 12.667z"></path>
<path stroke-linejoin="round" stroke-linecap="round" stroke-miterlimit="4" stroke-width="2" d="M29.333 29.333l-2.667-2.667"></path>
</symbol>
<symbol id="icon-filter" viewBox="0 0 32 32">
<path stroke-linejoin="round" stroke-linecap="round" stroke-miterlimit="10" stroke-width="2" d="M29.333 8.667h-8"></path>
<path stroke-linejoin="round" stroke-linecap="round" stroke-miterlimit="10" stroke-width="2" d="M8 8.667h-5.333"></path>
<path stroke-linejoin="round" stroke-linecap="round" stroke-miterlimit="10" stroke-width="2" d="M13.333 13.333c2.577 0 4.667-2.089 4.667-4.667s-2.089-4.667-4.667-4.667c-2.577 0-4.667 2.089-4.667 4.667s2.089 4.667 4.667 4.667z"></path>
<path stroke-linejoin="round" stroke-linecap="round" stroke-miterlimit="10" stroke-width="2" d="M29.333 23.333h-5.333"></path>
<path stroke-linejoin="round" stroke-linecap="round" stroke-miterlimit="10" stroke-width="2" d="M10.667 23.333h-8"></path>
<path stroke-linejoin="round" stroke-linecap="round" stroke-miterlimit="10" stroke-width="2" d="M18.667 28c2.577 0 4.667-2.089 4.667-4.667s-2.089-4.667-4.667-4.667c-2.577 0-4.667 2.089-4.667 4.667s2.089 4.667 4.667 4.667z"></path>
</symbol>
</defs>
</svg>
